@startuml
skinparam packageStyle rect/' 加入这行代码，样式纯矩形'/
interface Set<<接口>>{
boolean add (Object o)
boolean remove(Object o)
}

package "com.ztman.org"  as Pa #green{
class HashSet<? extends String>{
+boolean add (Object o)
+boolean remove(Object o)
}
interface IntSet{
boolean add (int i)
boolean remove(int i)
}
class IntHashSet{
+boolean add (int i)
+boolean remove(int i)
}
}

Set <|.. HashSet
HashSet <|-- IntHashSet
IntSet <|.. IntHashSet

package "com.ztman.org.cn"  as Pb #orange{
class TreeSet {
+boolean add (Object o)
+boolean remove(Object o)
}
class IntTreeSet{
+boolean add (int i)
+boolean remove(int i)
}
}
IntSet <|.. IntTreeSet
TreeSet <|-- IntTreeSet
Set <|.. TreeSet

Pb +-- Pa

@enduml